HIERARCHY
ROOT Hips
{
	OFFSET 0.000000 0.000000 0.000000
	CHANNELS 6 Xposition Yposition Zposition Xrotation Yrotation Zrotation
	JOINT LeftUpLeg_virtual
	{
		OFFSET 0.000000 0.000000 0.000000
		CHANNELS 3 Xrotation Yrotation Zrotation
		JOINT LeftUpLeg
		{
			OFFSET 15.427100 -6.655098 0.678600
			CHANNELS 3 Xrotation Yrotation Zrotation
			JOINT LeftLeg
			{
				OFFSET 4.081073 -39.591068 13.024000
				CHANNELS 3 Xrotation Yrotation Zrotation
				JOINT LeftFoot
				{
					OFFSET -4.081074 -37.707932 -15.979700
					CHANNELS 3 Xrotation Yrotation Zrotation
					JOINT LeftToeBase
					{
						OFFSET 5.346399 -15.068900 20.645000
						CHANNELS 3 Xrotation Yrotation Zrotation
						JOINT LeftToe_End
						{
							OFFSET 2.754700 0.931300 11.300900
							CHANNELS 3 Xrotation Yrotation Zrotation
							End Site
							{
								OFFSET 0 0 0
							}
						}
					}
				}
			}
		}
	}
	JOINT RightUpLeg_virtual
	{
		OFFSET 0.000000 0.000000 0.000000
		CHANNELS 3 Xrotation Yrotation Zrotation
		JOINT RightUpLeg
		{
			OFFSET -15.569500 -6.655098 0.678600
			CHANNELS 3 Xrotation Yrotation Zrotation
			JOINT RightLeg
			{
				OFFSET -4.081825 -39.591045 13.023800
				CHANNELS 3 Xrotation Yrotation Zrotation
				JOINT RightFoot
				{
					OFFSET 4.081824 -37.707954 -15.979600
					CHANNELS 3 Xrotation Yrotation Zrotation
					JOINT RightToeBase
					{
						OFFSET -5.346400 -15.068900 20.645000
						CHANNELS 3 Xrotation Yrotation Zrotation
						JOINT RightToe_End
						{
							OFFSET -2.754700 0.931300 11.300900
							CHANNELS 3 Xrotation Yrotation Zrotation
							End Site
							{
								OFFSET 0 0 0
							}
						}
					}
				}
			}
		}
	}
	JOINT Spine_virtual
	{
		OFFSET 0.000000 0.000000 0.000000
		CHANNELS 3 Xrotation Yrotation Zrotation
		JOINT Spine
		{
			OFFSET -0.279200 12.230698 -2.892100
			CHANNELS 3 Xrotation Yrotation Zrotation
			JOINT Spine1
			{
				OFFSET -0.232667 10.192268 -1.242267
				CHANNELS 3 Xrotation Yrotation Zrotation
				JOINT Spine1_split
				{
					OFFSET -0.232667 10.192268 -1.242267
					CHANNELS 3 Xrotation Yrotation Zrotation
					JOINT Spine2
					{
						OFFSET -0.232667 10.192268 -1.242267
						CHANNELS 3 Xrotation Yrotation Zrotation
						JOINT Neck_virtual
						{
							OFFSET 0.000000 0.000000 0.000000
							CHANNELS 3 Xrotation Yrotation Zrotation
							JOINT Neck
							{
								OFFSET -0.418800 17.814194 8.416900
								CHANNELS 3 Xrotation Yrotation Zrotation
								JOINT Head
								{
									OFFSET 0.000000 7.031097 3.806800
									CHANNELS 3 Xrotation Yrotation Zrotation
									JOINT HeadTop_End
									{
										OFFSET 0.000000 24.646606 12.978600
										CHANNELS 3 Xrotation Yrotation Zrotation
										End Site
										{
											OFFSET 0 0 0
										}
									}
								}
							}
						}
						JOINT LeftShoulder_virtual
						{
							OFFSET 0.000000 0.000000 0.000000
							CHANNELS 3 Xrotation Yrotation Zrotation
							JOINT LeftShoulder
							{
								OFFSET 8.476499 7.247704 -3.868750
								CHANNELS 3 Xrotation Yrotation Zrotation
								JOINT LeftShoulder_split
								{
									OFFSET 8.476499 7.247704 -3.868750
									CHANNELS 3 Xrotation Yrotation Zrotation
									JOINT LeftArm
									{
										OFFSET 9.308998 -2.777710 0.208600
										CHANNELS 3 Xrotation Yrotation Zrotation
										JOINT LeftForeArm
										{
											OFFSET 29.972298 0.000000 0.000000
											CHANNELS 3 Xrotation Yrotation Zrotation
											JOINT LeftHand
											{
												OFFSET 26.026505 0.000000 0.000000
												CHANNELS 3 Xrotation Yrotation Zrotation
												End Site
												{
													OFFSET 0 0 0
												}
											}
										}
									}
								}
							}
						}
						JOINT RightShoulder_virtual
						{
							OFFSET 0.000000 0.000000 0.000000
							CHANNELS 3 Xrotation Yrotation Zrotation
							JOINT RightShoulder
							{
								OFFSET -7.570500 7.247704 -3.868750
								CHANNELS 3 Xrotation Yrotation Zrotation
								JOINT RightShoulder_split
								{
									OFFSET -7.570500 7.247704 -3.868750
									CHANNELS 3 Xrotation Yrotation Zrotation
									JOINT RightArm
									{
										OFFSET -9.308998 -2.777710 0.208500
										CHANNELS 3 Xrotation Yrotation Zrotation
										JOINT RightForeArm
										{
											OFFSET -29.972300 0.000000 0.000000
											CHANNELS 3 Xrotation Yrotation Zrotation
											JOINT RightHand
											{
												OFFSET -26.026505 0.000000 0.000000
												CHANNELS 3 Xrotation Yrotation Zrotation
												End Site
												{
													OFFSET 0 0 0
												}
											}
										}
									}
								}
							}
						}
					}
				}
			}
		}
	}
}
MOTION
Frames: 8
Frame Time: 0.03333333
18.527716 74.031960 -18.798790 0.000000 0.000000 0.000000 51.938691 -3.544227 10.880729 -82.584616 4.135486 19.954493 44.809292 -6.260368 -1.049197 -1.224925 7.765400 -14.209041 7.290096 -0.806038 -0.496900 0.000000 0.000000 0.000000 52.731065 -4.718845 11.178441 -40.269928 2.246065 -17.698816 52.114436 13.564729 0.991420 -15.199555 -19.921556 12.056758 -19.674283 7.326218 -2.457397 0.000000 0.000000 0.000000 54.452935 0.701371 8.939097 12.747868 1.241015 -0.289628 12.328627 -1.083205 -3.564991 0.253292 0.110145 -0.021668 0.000000 0.000000 0.000000 18.702047 0.320413 -3.880950 -27.683163 -5.002016 -2.647968 -75.711144 4.076966 30.493318 0.000000 0.000000 0.000000 17.419919 -0.227188 -4.234247 6.641054 -1.383827 5.409234 -0.382645 -3.924732 -0.826126 -27.786837 -64.589861 -13.792507 -15.722592 -15.085641 -15.371730 0.000000 0.000000 0.000000 20.043134 0.502476 -3.135515 9.301646 32.273095 -8.084439 -6.474706 -1.516455 6.679741 -43.394808 25.892137 12.724218 -14.462473 33.693849 15.084874 0.000000 0.000000 0.000000 
17.770838 76.048729 -18.201599 0.000000 0.000000 0.000000 49.899607 -3.720847 10.617646 -76.946432 4.638227 18.405341 41.605315 -6.122614 -1.231368 -2.641294 8.639670 -13.576545 8.482263 -0.795352 -0.657357 0.000000 0.000000 0.000000 50.384014 -4.712629 10.703058 -43.922105 2.557020 -17.254168 55.364748 12.934290 1.366248 -17.204367 -18.051258 8.316544 -17.497420 6.630633 -2.043489 0.000000 0.000000 0.000000 52.047510 0.764387 8.388650 12.673804 1.132705 -0.015561 12.021454 -1.039581 -3.285403 0.247616 0.157283 -0.016330 0.000000 0.000000 0.000000 18.717556 0.387104 -3.605820 -27.845669 -5.257265 -2.484891 -73.440059 4.472302 29.341902 0.000000 0.000000 0.000000 17.253186 -0.090926 -4.049165 6.501916 -1.622999 3.624949 -0.337176 -4.106058 -0.513704 -27.271841 -62.418182 -17.781074 -15.232963 -15.151612 -14.665395 0.000000 0.000000 0.000000 20.035646 0.606017 -3.005195 8.544101 31.784388 -7.101907 -6.719661 -1.335878 6.677084 -41.897101 23.272032 16.856490 -13.799045 32.657511 14.006094 0.000000 0.000000 0.000000 
17.096630 77.932816 -17.551292 0.000000 0.000000 0.000000 47.757144 -3.931752 10.142594 -71.187626 4.820361 17.014035 38.576669 -6.046823 -1.460183 -4.036684 9.607944 -13.318498 8.847521 -0.758731 -0.662945 0.000000 0.000000 0.000000 48.107427 -4.949613 10.189232 -46.984280 2.339796 -17.061548 55.700155 12.279369 1.864521 -17.220768 -16.510633 6.604298 -14.910672 6.013562 -1.982139 0.000000 0.000000 0.000000 49.476384 0.795276 7.719339 12.517737 1.041265 0.350737 11.713260 -0.977804 -2.997880 0.252215 0.187692 -0.026516 0.000000 0.000000 0.000000 18.626237 0.469348 -3.348937 -27.836185 -5.530048 -2.360280 -70.637796 4.761961 28.086691 0.000000 0.000000 0.000000 17.021706 0.042083 -3.878334 6.343650 -1.868112 1.881917 -0.306427 -4.216284 -0.183902 -26.569204 -60.416220 -21.852405 -14.494283 -14.609884 -13.715646 0.000000 0.000000 0.000000 19.957968 0.713235 -2.873732 7.823499 31.183840 -6.126014 -6.979439 -0.927035 6.655732 -39.978508 20.557691 20.465243 -13.320523 31.570309 13.129867 0.000000 0.000000 0.000000 
16.484100 79.677498 -16.866570 0.000000 0.000000 0.000000 45.598934 -4.062985 9.438343 -65.388256 4.950987 15.973156 35.511963 -5.870983 -1.760685 -5.584741 10.723359 -12.945209 8.683766 -0.730146 -0.494707 0.000000 0.000000 0.000000 45.916555 -5.122149 9.435075 -48.939443 1.707311 -16.849904 52.925210 11.522642 2.361360 -16.693816 -15.289324 6.216928 -10.586419 5.612618 -2.487351 0.000000 0.000000 0.000000 46.762402 0.871640 6.932679 12.252956 0.938936 0.800084 11.387285 -0.918691 -2.682283 0.260368 0.220394 -0.038776 0.000000 0.000000 0.000000 18.409569 0.540261 -3.089356 -27.601781 -5.800983 -2.308012 -67.374325 4.833185 26.737587 0.000000 0.000000 0.000000 16.708666 0.149648 -3.686338 6.189645 -2.174790 0.282406 -0.254889 -4.354952 0.114835 -25.599445 -58.588236 -25.702656 -13.679767 -13.702428 -12.669000 0.000000 0.000000 0.000000 19.781283 0.804046 -2.705238 7.147310 30.515769 -5.127070 -7.351662 -0.432343 6.679973 -37.670416 17.931634 23.497280 -12.998104 30.429046 12.412196 0.000000 0.000000 0.000000 
15.869008 81.326248 -16.226234 0.000000 0.000000 0.000000 43.438719 -4.203880 8.589969 -59.735004 5.153464 15.308949 32.447797 -5.631060 -2.084054 -7.062723 11.934994 -12.490555 8.736459 -0.727474 -0.425668 0.000000 0.000000 0.000000 43.857106 -4.954802 8.406437 -49.412454 0.741346 -16.530847 48.039207 10.497959 2.727860 -16.434390 -14.367702 6.322932 -4.807907 5.461452 -3.522432 0.000000 0.000000 0.000000 44.028803 1.094564 6.015177 11.835817 0.780904 1.290859 11.025610 -0.901368 -2.337556 0.262297 0.249614 -0.040151 0.000000 0.000000 0.000000 18.084652 0.581221 -2.824376 -27.118865 -6.002708 -2.343164 -63.752460 4.548218 25.279189 0.000000 0.000000 0.000000 16.313410 0.211826 -3.463020 6.064321 -2.621431 -1.081041 -0.372885 -4.443961 0.242645 -24.315864 -56.875607 -29.070781 -12.959730 -12.809907 -11.677446 0.000000 0.000000 0.000000 19.496416 0.854677 -2.496102 6.514806 29.780475 -4.090317 -7.754063 0.003429 6.627371 -35.139595 15.498722 26.091114 -12.811640 29.318911 11.810027 0.000000 0.000000 0.000000 
15.159930 82.912170 -15.687012 0.000000 0.000000 0.000000 41.231858 -4.280681 7.679917 -54.353037 5.500847 14.934699 29.498802 -5.469701 -2.375828 -8.137416 13.121342 -12.225971 8.949691 -0.759325 -0.386698 0.000000 0.000000 0.000000 41.735745 -4.453857 7.260109 -48.781853 -0.199758 -16.082845 42.203694 9.378421 2.758948 -15.897639 -13.735445 7.303286 0.590148 5.496552 -4.901827 0.000000 0.000000 0.000000 41.363550 1.557623 5.018662 11.242598 0.548224 1.755731 10.629502 -0.949193 -1.983965 0.242621 0.279448 -0.032176 0.000000 0.000000 0.000000 17.692692 0.587257 -2.568360 -26.370083 -6.089608 -2.478462 -59.985365 4.008778 23.772422 0.000000 0.000000 0.000000 15.858772 0.219575 -3.212686 5.975270 -3.214475 -2.135536 -0.527389 -4.528766 0.195893 -22.847895 -55.161202 -31.867538 -12.404546 -12.188835 -10.810118 0.000000 0.000000 0.000000 19.108311 0.848826 -2.261106 5.929307 28.964309 -3.091294 -8.128377 0.434248 6.577821 -32.564091 13.348721 28.355812 -12.727821 28.398205 11.291754 0.000000 0.000000 0.000000 
14.301369 84.427879 -15.272327 0.000000 0.000000 0.000000 38.958767 -4.325524 6.838949 -49.386243 6.174225 14.800602 26.784286 -5.493171 -2.624596 -8.618585 14.146160 -12.360077 8.866777 -0.835622 -0.178727 0.000000 0.000000 0.000000 39.423534 -3.630267 6.132296 -47.615530 -0.783451 -15.746197 36.392672 8.753026 2.420619 -14.115055 -13.026882 10.109470 3.354269 5.695247 -6.265443 0.000000 0.000000 0.000000 38.742049 2.311480 4.005429 10.493881 0.245812 2.145466 10.217107 -1.063828 -1.650654 0.221763 0.280034 -0.034399 0.000000 0.000000 0.000000 17.277536 0.555991 -2.339902 -25.376832 -6.040285 -2.704208 -56.271579 3.359138 22.290638 0.000000 0.000000 0.000000 15.379074 0.176703 -2.963512 5.916490 -3.962772 -2.882686 -0.701261 -4.583138 -0.071706 -21.455993 -53.425924 -34.206059 -11.999712 -11.933616 -10.082832 0.000000 0.000000 0.000000 18.663471 0.777435 -2.032176 5.404887 28.073597 -2.180893 -8.429378 0.831621 6.536253 -30.102519 11.553139 30.461527 -12.695204 27.793969 10.827552 0.000000 0.000000 0.000000 
13.385720 85.828308 -14.887997 0.000000 0.000000 0.000000 36.627228 -4.312662 6.149256 -44.919183 7.329717 14.783562 24.393782 -5.639733 -2.823977 -8.572339 14.891199 -12.783212 8.309587 -0.976979 0.251856 0.000000 0.000000 0.000000 36.987305 -2.740734 5.196152 -46.067208 -1.032716 -15.532308 31.192094 8.752765 1.753079 -11.250052 -12.118179 14.447226 3.191016 6.014665 -7.244606 0.000000 0.000000 0.000000 36.114936 3.282999 3.126821 9.620893 -0.107460 2.401931 9.808714 -1.244515 -1.362386 0.196331 0.250511 -0.036410 0.000000 0.000000 0.000000 16.868014 0.493630 -2.156729 -24.179460 -5.867838 -2.995593 -52.759414 2.577829 20.838735 0.000000 0.000000 0.000000 14.900119 0.095204 -2.732441 5.871634 -4.833394 -3.366521 -0.832479 -4.568217 -0.558826 -20.263624 -51.673755 -36.184464 -11.715351 -12.040096 -9.470780 0.000000 0.000000 0.000000 18.203699 0.650347 -1.837596 4.931997 27.135998 -1.356722 -8.591147 1.255895 6.513512 -27.875141 10.138343 32.508251 -12.662217 27.510914 10.390391 0.000000 0.000000 0.000000 
